<mxfile host="Electron" agent="Mozilla/5.0 (Windows NT 10.0; Win64; x64) AppleWebKit/537.36 (KHTML, like Gecko) draw.io/27.0.9 Chrome/134.0.6998.205 Electron/35.4.0 Safari/537.36" version="27.0.9">
  <diagram name="Page-1" id="2sFkyg8ZTUHlAqek48I9">
    <mxGraphModel dx="1158" dy="696" grid="1" gridSize="10" guides="1" tooltips="1" connect="1" arrows="1" fold="1" page="1" pageScale="1" pageWidth="850" pageHeight="1100" math="0" shadow="0">
      <root>
        <mxCell id="0" />
        <mxCell id="1" parent="0" />
        <mxCell id="rY8jB77WZfP0EvoolgEp-1" value="&lt;b&gt;&lt;font style=&quot;font-size: 15px;&quot;&gt;High level data architecture&lt;/font&gt;&lt;/b&gt;" style="text;html=1;align=center;verticalAlign=middle;whiteSpace=wrap;rounded=0;" vertex="1" parent="1">
          <mxGeometry y="10" width="230" height="40" as="geometry" />
        </mxCell>
        <mxCell id="rY8jB77WZfP0EvoolgEp-2" value="" style="rounded=0;whiteSpace=wrap;html=1;fillColor=none;dashed=1;fontColor=light-dark(#808080,#EDEDED);" vertex="1" parent="1">
          <mxGeometry x="40" y="105" width="120" height="380" as="geometry" />
        </mxCell>
        <mxCell id="rY8jB77WZfP0EvoolgEp-3" value="" style="rounded=0;whiteSpace=wrap;html=1;fillColor=none;dashed=1;fontColor=light-dark(#4f4f4f, #ededed);" vertex="1" parent="1">
          <mxGeometry x="170" y="100" width="520" height="380" as="geometry" />
        </mxCell>
        <mxCell id="rY8jB77WZfP0EvoolgEp-4" value="" style="rounded=0;whiteSpace=wrap;html=1;fillColor=none;dashed=1;fontColor=#808080;" vertex="1" parent="1">
          <mxGeometry x="720" y="100" width="120" height="380" as="geometry" />
        </mxCell>
        <mxCell id="rY8jB77WZfP0EvoolgEp-6" value="Source" style="rounded=0;whiteSpace=wrap;html=1;strokeColor=none;" vertex="1" parent="1">
          <mxGeometry x="45" y="80" width="90" height="30" as="geometry" />
        </mxCell>
        <mxCell id="rY8jB77WZfP0EvoolgEp-7" value="Data warehouse" style="rounded=0;whiteSpace=wrap;html=1;strokeColor=none;fontSize=12;" vertex="1" parent="1">
          <mxGeometry x="400" y="80" width="100" height="30" as="geometry" />
        </mxCell>
        <mxCell id="rY8jB77WZfP0EvoolgEp-8" value="Consumer" style="rounded=0;whiteSpace=wrap;html=1;strokeColor=none;" vertex="1" parent="1">
          <mxGeometry x="735" y="80" width="90" height="30" as="geometry" />
        </mxCell>
        <mxCell id="rY8jB77WZfP0EvoolgEp-9" value="Bronze Layer" style="rounded=0;whiteSpace=wrap;html=1;fillColor=#ffe6cc;strokeColor=#d79b00;" vertex="1" parent="1">
          <mxGeometry x="210" y="120" width="120" height="40" as="geometry" />
        </mxCell>
        <mxCell id="rY8jB77WZfP0EvoolgEp-11" value="" style="rounded=0;whiteSpace=wrap;html=1;fillColor=none;strokeColor=#FFB570;" vertex="1" parent="1">
          <mxGeometry x="210" y="170" width="120" height="290" as="geometry" />
        </mxCell>
        <mxCell id="rY8jB77WZfP0EvoolgEp-13" value="Silver Layer" style="rounded=0;whiteSpace=wrap;html=1;fillColor=#f5f5f5;strokeColor=#666666;fontColor=#333333;" vertex="1" parent="1">
          <mxGeometry x="390" y="120" width="120" height="40" as="geometry" />
        </mxCell>
        <mxCell id="rY8jB77WZfP0EvoolgEp-14" value="" style="rounded=0;whiteSpace=wrap;html=1;fillColor=none;strokeColor=#CCCCCC;" vertex="1" parent="1">
          <mxGeometry x="390" y="170" width="120" height="290" as="geometry" />
        </mxCell>
        <mxCell id="rY8jB77WZfP0EvoolgEp-15" value="Gold Layer" style="rounded=0;whiteSpace=wrap;html=1;fillColor=#fff2cc;strokeColor=#d6b656;" vertex="1" parent="1">
          <mxGeometry x="550" y="120" width="120" height="40" as="geometry" />
        </mxCell>
        <mxCell id="rY8jB77WZfP0EvoolgEp-16" value="" style="rounded=0;whiteSpace=wrap;html=1;fillColor=none;strokeColor=#d6b656;" vertex="1" parent="1">
          <mxGeometry x="550" y="170" width="120" height="290" as="geometry" />
        </mxCell>
        <mxCell id="rY8jB77WZfP0EvoolgEp-17" value="&lt;b&gt;CRM&lt;/b&gt;" style="image;aspect=fixed;html=1;points=[];align=center;fontSize=12;image=img/lib/azure2/general/Folder_Blank.svg;" vertex="1" parent="1">
          <mxGeometry x="59.19" y="140" width="61.61" height="50" as="geometry" />
        </mxCell>
        <mxCell id="rY8jB77WZfP0EvoolgEp-18" value="" style="image;aspect=fixed;html=1;points=[];align=center;fontSize=12;image=img/lib/azure2/general/Files.svg;" vertex="1" parent="1">
          <mxGeometry x="110" y="160" width="36.57" height="40" as="geometry" />
        </mxCell>
        <mxCell id="rY8jB77WZfP0EvoolgEp-23" value="&lt;b&gt;ERP&lt;/b&gt;" style="image;aspect=fixed;html=1;points=[];align=center;fontSize=12;image=img/lib/azure2/general/Folder_Blank.svg;" vertex="1" parent="1">
          <mxGeometry x="59.19" y="240" width="61.61" height="50" as="geometry" />
        </mxCell>
        <mxCell id="rY8jB77WZfP0EvoolgEp-24" value="" style="image;aspect=fixed;html=1;points=[];align=center;fontSize=12;image=img/lib/azure2/general/Files.svg;" vertex="1" parent="1">
          <mxGeometry x="109.99999999999997" y="275" width="36.57" height="40" as="geometry" />
        </mxCell>
        <mxCell id="rY8jB77WZfP0EvoolgEp-26" value="" style="endArrow=none;html=1;rounded=0;dashed=1;" edge="1" parent="1">
          <mxGeometry width="50" height="50" relative="1" as="geometry">
            <mxPoint x="135" y="340" as="sourcePoint" />
            <mxPoint x="134.81" y="340" as="targetPoint" />
            <Array as="points">
              <mxPoint x="92.42999999999999" y="340" />
              <mxPoint x="47.43" y="340" />
              <mxPoint x="102.42999999999999" y="340" />
            </Array>
          </mxGeometry>
        </mxCell>
        <mxCell id="rY8jB77WZfP0EvoolgEp-27" value="&lt;b&gt;Object Type&lt;/b&gt;: csv files" style="text;html=1;align=center;verticalAlign=middle;whiteSpace=wrap;rounded=0;" vertex="1" parent="1">
          <mxGeometry x="50" y="380" width="80" height="60" as="geometry" />
        </mxCell>
        <mxCell id="rY8jB77WZfP0EvoolgEp-28" value="" style="html=1;verticalLabelPosition=bottom;align=center;labelBackgroundColor=#ffffff;verticalAlign=top;strokeWidth=2;strokeColor=#d79b00;shadow=0;dashed=0;shape=mxgraph.ios7.icons.data;fillColor=#FFCE9F;" vertex="1" parent="1">
          <mxGeometry x="250" y="220" width="40" height="40" as="geometry" />
        </mxCell>
        <mxCell id="rY8jB77WZfP0EvoolgEp-29" value="" style="html=1;verticalLabelPosition=bottom;align=center;labelBackgroundColor=#ffffff;verticalAlign=top;strokeWidth=2;strokeColor=#666666;shadow=0;dashed=0;shape=mxgraph.ios7.icons.data;fillColor=#f5f5f5;fontColor=#333333;" vertex="1" parent="1">
          <mxGeometry x="430" y="220" width="40" height="40" as="geometry" />
        </mxCell>
        <mxCell id="rY8jB77WZfP0EvoolgEp-30" value="" style="html=1;verticalLabelPosition=bottom;align=center;labelBackgroundColor=#ffffff;verticalAlign=top;strokeWidth=2;strokeColor=#d6b656;shadow=0;dashed=0;shape=mxgraph.ios7.icons.data;fillColor=#fff2cc;" vertex="1" parent="1">
          <mxGeometry x="600" y="220" width="40" height="40" as="geometry" />
        </mxCell>
        <mxCell id="rY8jB77WZfP0EvoolgEp-32" value="" style="shape=singleArrow;whiteSpace=wrap;html=1;fillColor=#dae8fc;strokeColor=#6c8ebf;" vertex="1" parent="1">
          <mxGeometry x="135" y="220" width="55" height="40" as="geometry" />
        </mxCell>
        <mxCell id="rY8jB77WZfP0EvoolgEp-33" value="" style="shape=singleArrow;whiteSpace=wrap;html=1;fillColor=#dae8fc;strokeColor=#6c8ebf;" vertex="1" parent="1">
          <mxGeometry x="340" y="220" width="45" height="40" as="geometry" />
        </mxCell>
        <mxCell id="rY8jB77WZfP0EvoolgEp-34" value="" style="shape=singleArrow;whiteSpace=wrap;html=1;fillColor=#dae8fc;strokeColor=#6c8ebf;arrowWidth=0.2399993896484375;arrowSize=0.479998779296875;" vertex="1" parent="1">
          <mxGeometry x="520" y="220" width="40" height="40" as="geometry" />
        </mxCell>
        <mxCell id="rY8jB77WZfP0EvoolgEp-35" value="" style="shape=singleArrow;whiteSpace=wrap;html=1;fillColor=#dae8fc;strokeColor=#6c8ebf;" vertex="1" parent="1">
          <mxGeometry x="690" y="220" width="55" height="40" as="geometry" />
        </mxCell>
        <mxCell id="rY8jB77WZfP0EvoolgEp-39" value="raw data" style="text;strokeColor=none;align=center;fillColor=none;html=1;verticalAlign=middle;whiteSpace=wrap;rounded=0;" vertex="1" parent="1">
          <mxGeometry x="240" y="280" width="60" height="30" as="geometry" />
        </mxCell>
        <mxCell id="rY8jB77WZfP0EvoolgEp-40" value="clean , standardized data&lt;div&gt;&lt;br&gt;&lt;/div&gt;" style="text;strokeColor=none;align=center;fillColor=none;html=1;verticalAlign=middle;whiteSpace=wrap;rounded=0;" vertex="1" parent="1">
          <mxGeometry x="420" y="290" width="60" height="30" as="geometry" />
        </mxCell>
        <mxCell id="rY8jB77WZfP0EvoolgEp-41" value="Bussiness ready data&lt;div&gt;&lt;br&gt;&lt;/div&gt;" style="text;strokeColor=none;align=center;fillColor=none;html=1;verticalAlign=middle;whiteSpace=wrap;rounded=0;" vertex="1" parent="1">
          <mxGeometry x="580" y="290" width="60" height="30" as="geometry" />
        </mxCell>
        <mxCell id="rY8jB77WZfP0EvoolgEp-42" value="" style="endArrow=none;html=1;rounded=0;dashed=1;" edge="1" parent="1">
          <mxGeometry width="50" height="50" relative="1" as="geometry">
            <mxPoint x="317.57" y="319.44" as="sourcePoint" />
            <mxPoint x="317.38" y="319.44" as="targetPoint" />
            <Array as="points">
              <mxPoint x="275" y="319.44" />
              <mxPoint x="230" y="319.44" />
              <mxPoint x="285" y="319.44" />
            </Array>
          </mxGeometry>
        </mxCell>
        <mxCell id="rY8jB77WZfP0EvoolgEp-43" value="" style="endArrow=none;html=1;rounded=0;dashed=1;" edge="1" parent="1">
          <mxGeometry width="50" height="50" relative="1" as="geometry">
            <mxPoint x="493.78" y="320" as="sourcePoint" />
            <mxPoint x="493.59000000000003" y="320" as="targetPoint" />
            <Array as="points">
              <mxPoint x="451.21000000000004" y="320" />
              <mxPoint x="406.21000000000004" y="320" />
              <mxPoint x="461.21000000000004" y="320" />
            </Array>
          </mxGeometry>
        </mxCell>
        <mxCell id="rY8jB77WZfP0EvoolgEp-44" value="" style="endArrow=none;html=1;rounded=0;dashed=1;" edge="1" parent="1">
          <mxGeometry width="50" height="50" relative="1" as="geometry">
            <mxPoint x="653.79" y="320" as="sourcePoint" />
            <mxPoint x="653.6" y="320" as="targetPoint" />
            <Array as="points">
              <mxPoint x="566.22" y="320" />
              <mxPoint x="621.22" y="320" />
            </Array>
          </mxGeometry>
        </mxCell>
        <mxCell id="rY8jB77WZfP0EvoolgEp-45" value="&lt;font style=&quot;font-size: 10px;&quot;&gt;&lt;b&gt;Object type:&lt;/b&gt;Tables&lt;/font&gt;&lt;div&gt;&lt;span style=&quot;font-size: 10px;&quot;&gt;&lt;b&gt;Load:&lt;/b&gt;Batch processing&lt;/span&gt;&lt;/div&gt;&lt;div&gt;&lt;span style=&quot;font-size: 10px;&quot;&gt;Full Load&lt;/span&gt;&lt;/div&gt;&lt;div&gt;&lt;span style=&quot;font-size: 10px;&quot;&gt;Truncate &amp;amp; Insert&lt;/span&gt;&lt;/div&gt;&lt;div&gt;&lt;div style=&quot;&quot;&gt;&lt;span style=&quot;font-size: 10px;&quot;&gt;&lt;b&gt;No Transformations&lt;/b&gt;&lt;/span&gt;&lt;/div&gt;&lt;div style=&quot;&quot;&gt;&lt;span style=&quot;font-size: 10px;&quot;&gt;&lt;b&gt;Data Model:&lt;/b&gt; None (as-is)&lt;/span&gt;&lt;/div&gt;&lt;/div&gt;&lt;div&gt;&lt;span style=&quot;font-size: 10px;&quot;&gt;&lt;br&gt;&lt;/span&gt;&lt;div&gt;&lt;span style=&quot;font-size: 10px;&quot;&gt;&lt;br&gt;&lt;/span&gt;&lt;div&gt;&lt;br&gt;&lt;/div&gt;&lt;/div&gt;&lt;/div&gt;" style="text;html=1;align=left;verticalAlign=middle;whiteSpace=wrap;rounded=0;" vertex="1" parent="1">
          <mxGeometry x="220" y="330" width="130" height="130" as="geometry" />
        </mxCell>
        <mxCell id="rY8jB77WZfP0EvoolgEp-46" value="&lt;font&gt;&lt;b&gt;Object type:&lt;/b&gt;Tables&lt;/font&gt;&lt;div&gt;&lt;span&gt;&lt;b&gt;Load:&lt;/b&gt;Batch processing&lt;/span&gt;&lt;/div&gt;&lt;div&gt;&lt;span&gt;Full Load&lt;/span&gt;&lt;/div&gt;&lt;div&gt;&lt;span&gt;Truncate &amp;amp; Insert&lt;/span&gt;&lt;/div&gt;&lt;div&gt;&lt;div&gt;&lt;span&gt;&lt;b&gt;Transformations:&lt;/b&gt;&lt;/span&gt;&lt;/div&gt;&lt;div&gt;&lt;span&gt;Data Cleansing&lt;/span&gt;&lt;/div&gt;&lt;div&gt;&lt;span&gt;Data Standardization&lt;/span&gt;&lt;/div&gt;&lt;div&gt;&lt;span&gt;Data Normalization&lt;/span&gt;&lt;/div&gt;&lt;div&gt;&lt;span&gt;Derived Columns&lt;/span&gt;&lt;/div&gt;&lt;div&gt;&lt;span&gt;Data Enrichment&lt;/span&gt;&lt;/div&gt;&lt;div&gt;&lt;span&gt;&lt;b&gt;Data Model:&lt;/b&gt; None (as-is)&lt;/span&gt;&lt;/div&gt;&lt;/div&gt;&lt;div&gt;&lt;span&gt;&lt;br&gt;&lt;/span&gt;&lt;div&gt;&lt;span&gt;&lt;br&gt;&lt;/span&gt;&lt;div&gt;&lt;br&gt;&lt;/div&gt;&lt;/div&gt;&lt;/div&gt;" style="text;html=1;align=left;verticalAlign=middle;whiteSpace=wrap;rounded=0;fontSize=10;" vertex="1" parent="1">
          <mxGeometry x="390" y="310" width="120" height="200" as="geometry" />
        </mxCell>
        <mxCell id="rY8jB77WZfP0EvoolgEp-47" value="&lt;font&gt;&lt;b&gt;Object type&lt;/b&gt;:Views&lt;/font&gt;&lt;div&gt;&lt;font&gt;No Load&lt;/font&gt;&lt;/div&gt;&lt;div&gt;&lt;font&gt;&lt;b&gt;Transformations:&lt;/b&gt;&lt;/font&gt;&lt;/div&gt;&lt;div&gt;&lt;font&gt;Data Integrations&lt;/font&gt;&lt;/div&gt;&lt;div&gt;&lt;font&gt;Aggregations&lt;/font&gt;&lt;/div&gt;&lt;div&gt;&lt;font&gt;Business Logics&lt;/font&gt;&lt;/div&gt;&lt;div&gt;&lt;font&gt;&lt;b&gt;Data Model:&lt;/b&gt;&lt;/font&gt;&lt;/div&gt;&lt;div&gt;&lt;font&gt;Star Schema&lt;/font&gt;&lt;/div&gt;&lt;div&gt;&lt;font&gt;Flat Table&lt;/font&gt;&lt;/div&gt;&lt;div&gt;&lt;font&gt;Aggregated Table&lt;/font&gt;&lt;/div&gt;" style="text;html=1;align=left;verticalAlign=middle;whiteSpace=wrap;rounded=0;fontSize=10;" vertex="1" parent="1">
          <mxGeometry x="562.5" y="320" width="95" height="140" as="geometry" />
        </mxCell>
        <mxCell id="rY8jB77WZfP0EvoolgEp-48" value="" style="image;aspect=fixed;html=1;points=[];align=center;fontSize=12;image=img/lib/azure2/analytics/Power_BI_Embedded.svg;" vertex="1" parent="1">
          <mxGeometry x="768.75" y="210" width="37.5" height="50" as="geometry" />
        </mxCell>
        <mxCell id="rY8jB77WZfP0EvoolgEp-51" value="" style="points=[];aspect=fixed;html=1;align=center;shadow=0;dashed=0;fillColor=#FF6A00;strokeColor=none;shape=mxgraph.alibaba_cloud.machine_learning;" vertex="1" parent="1">
          <mxGeometry x="763" y="335" width="49.8" height="50.099999999999994" as="geometry" />
        </mxCell>
      </root>
    </mxGraphModel>
  </diagram>
</mxfile>
